<?xml version="1.0" encoding="UTF-8"?>
<svg id="wordmark" xmlns="http://www.w3.org/2000/svg" version="1.1" viewBox="0 0 196.3 78.5">
  <!-- Generator: Adobe Illustrator 29.2.1, SVG Export Plug-In . SVG Version: 2.1.0 Build 116)  -->
  <defs>
    <style>
      .st0 {
        isolation: isolate;
      }

      .st1 {
        fill: #3a592e;
      }
    </style>
  </defs>
  <g id="barcamp">
    <g id="barcamp1" data-name="barcamp" class="st0">
      <path class="st1" d="M2.8,35.8V3.8h6.9v12.5c1.3-1.6,3.3-2.7,6.6-2.7,6.1,0,10.2,4.8,10.2,11.4s-4,11.3-10.2,11.3-5.2-.9-6.4-2.1l-.2,1.7H2.8ZM9.9,24.9c0,2.9,2,4.9,4.6,4.9s4.8-2,4.8-4.9-2.1-4.9-4.8-4.9-4.6,2-4.6,4.9Z"/>
      <path class="st1" d="M45.7,35.8l-.2-2.3c-1.2,1.5-3.4,2.7-6.4,2.7-5.8,0-10.1-4.8-10.1-11.3s4.3-11.4,10.1-11.4,5.2,1.2,6.4,2.7l.2-2.3h6.9v21.8h-6.9ZM36,24.9c0,2.9,1.9,5,4.7,5s4.7-2.1,4.7-5-1.9-5-4.7-5c-2.8,0-4.7,2.1-4.7,5Z"/>
      <path class="st1" d="M69.5,13.6c.9,0,1.7.2,2.7.5l-.4,6.2c-.9-.3-1.8-.5-2.7-.5-2.7,0-5,1.5-5,5.5v10.5h-7.1V14h6.7l.2,3c1-2.2,3.2-3.4,5.7-3.4Z"/>
      <path class="st1" d="M86.8,13.6c2.9,0,5.5.9,6.5,1.5l-.4,3.2c-1.5-.7-3.6-1.3-6.1-1.3-5.1,0-8.6,3.2-8.6,7.9s3.5,8,8.6,8,4.7-.6,6.3-1.4l.6,3.3c-1.9.9-4.5,1.5-6.9,1.5-7.3,0-12.3-4.6-12.3-11.4s5-11.3,12.2-11.3Z"/>
      <path class="st1" d="M120.1,35.8h-3.6v-3.6c-1.6,2.3-4.5,4-8.4,4-6.2,0-11-4.8-11-11.4s4.7-11.3,11-11.3,6.8,1.7,8.4,4v-3.6h3.6v21.8ZM100.7,24.8c0,4.5,3.2,8.1,7.8,8.1s8.1-3.6,8.1-8.1-3.4-8-8.1-8-7.8,3.5-7.8,8Z"/>
      <path class="st1" d="M163.3,22.5v13.3h-3.6v-12.4c0-4-2.2-6.4-6-6.4s-6.5,2.5-6.5,6.3v12.5h-3.6v-12.4c0-4-2.2-6.4-5.9-6.4s-6.5,2.5-6.5,6.5v12.3h-3.6V14h3.6v3.2c1.2-2,3.7-3.7,7.1-3.7s6.6,1.7,8,4.6c1.5-2.8,4.4-4.6,8-4.6,5.7,0,9,3.6,9,8.9Z"/>
      <path class="st1" d="M174.1,14v3.6c1.6-2.3,4.5-4,8.4-4,6.2,0,11,4.8,11,11.4s-4.7,11.3-11,11.3-6.8-1.7-8.4-4v12.6h-3.6V14h3.6ZM174.1,24.9c0,4.5,3.4,8,8.1,8s7.8-3.5,7.8-8-3.2-8.1-7.8-8.1-8.1,3.6-8.1,8.1Z"/>
    </g>
  </g>
  <g id="surrey">
    <path class="st1" d="M45.4,50.1l-1.1,4.5c-1.2-.8-4.3-1.6-7-1.6s-5.1,1-5.1,3.4,1.6,2.1,3,2.6l3.4,1.1c3.5,1.1,5.5,2.7,5.5,5.9,0,5.1-4.5,8.8-10.8,8.8s-7.4-.9-8.9-1.9l1.1-4.5c1.1.8,5,1.9,8.1,1.9s5.2-1.1,5.2-3.5-.8-2-2.6-2.5l-3.8-1.1c-2.8-.8-5.5-2.4-5.5-5.9,0-5.1,4.3-8.8,10.8-8.8s5.9.7,7.7,1.6Z"/>
    <path class="st1" d="M50.3,48.9h5l-2.5,16.1c-.6,3.6,1.7,5.2,5.1,5.2s6.2-1.7,6.8-5.2l2.6-16.1h5l-2.6,16.4c-1.1,6.6-6.7,9.4-12.4,9.4s-10.4-3-9.4-9.4l2.6-16.4Z"/>
    <path class="st1" d="M83.8,66.8h-4.7l-1.2,7.5h-5l4-25.5h11.6c4.5,0,7.8,2.8,7.8,7.6s-3.1,8.4-7.4,9.8c1.5,2,2.6,4.5,5.4,4.5s.7,0,1.1-.1l-.6,3.8c0,0-1,.3-2.5.3-5.5,0-6.8-5.9-8.7-7.9ZM81.3,53.2l-1.5,9.2h6c3,0,5.4-2.2,5.4-5.3s-1.6-3.9-3.9-3.9h-6Z"/>
    <path class="st1" d="M109.3,66.8h-4.7l-1.2,7.5h-5l4-25.5h11.6c4.5,0,7.8,2.8,7.8,7.6s-3.1,8.4-7.4,9.8c1.5,2,2.6,4.5,5.4,4.5s.7,0,1.1-.1l-.6,3.8c0,0-1,.3-2.5.3-5.5,0-6.8-5.9-8.7-7.9ZM106.9,53.2l-1.5,9.2h6c3,0,5.4-2.2,5.4-5.3s-1.6-3.9-3.9-3.9h-6Z"/>
    <path class="st1" d="M142.8,74.3h-18.8l4-25.5h18.5l-.7,4.4h-13.5l-.9,5.9h11.8l-.7,4.4h-11.8l-1,6.5h13.8l-.7,4.4Z"/>
    <path class="st1" d="M167.7,48.9h5.9l-12.7,15.8-1.5,9.6h-4.9l1.5-9.6-7.7-15.8h5.7l5.1,10.7,8.6-10.7Z"/>
  </g>
</svg>